<svg width="241" height="99" viewBox="0 0 241 99" fill="none" xmlns="http://www.w3.org/2000/svg">
<path d="M240.5 58.4426C235.035 57.2727 229.57 56.1027 224.206 57.5525C218.843 59.0022 213.58 63.0716 209.077 70.0403C204.573 77.009 200.829 86.8772 197.894 87.1315C194.959 87.3858 192.834 78.0264 189.828 74.0963C186.823 70.1664 182.937 71.6657 177.825 73.6207C172.713 75.5757 166.375 77.9864 157.641 78.7626C148.907 79.5389 137.777 78.6808 130.411 76.7226C123.044 74.7642 119.441 71.7056 117.639 70.1763C115.837 68.6471 115.837 68.6471 122.534 71.1937C129.232 73.7402 142.626 78.8334 149.349 81.3546C156.072 83.8757 156.122 83.8249 159.255 80.4332C162.387 77.0415 168.601 70.309 172.485 66.0001C176.368 61.6912 177.92 59.8059 181.315 55.6453C184.71 51.4848 189.948 45.0489 193.99 41.4084C198.032 37.7678 200.877 36.9227 203.691 37.0852C206.504 37.2478 209.284 38.4179 212.292 40.2057C215.299 41.9934 218.532 44.3987 222.348 45.0488C226.163 45.6989 230.561 44.5937 232.08 43.7811C233.6 42.9686 232.242 42.4484 231.143 40.7582C230.043 39.068 229.203 36.2077 228.653 32.4046C228.103 28.6016 227.845 23.8559 227.263 19.4353C226.681 15.0147 225.775 10.9191 224.449 7.86363C223.124 4.80817 221.378 2.79293 218.759 1.6878C216.139 0.582672 212.647 0.387652 209.511 0.550222C206.374 0.71269 203.594 1.23275 201.524 2.50045C199.455 3.76815 198.097 5.78338 197.709 7.70116C197.321 9.61893 197.903 11.4391 198.808 13.5195C199.713 15.5997 200.942 17.9401 201.556 21.1905C202.171 24.441 202.171 28.6016 201.718 30.5518C201.265 32.502 200.36 32.242 199.535 32.0145C198.711 31.7869 197.967 31.5919 197.595 31.1856C197.224 30.7793 197.224 30.1617 197.288 29.2841C197.353 28.4064 197.482 27.2688 197.45 26.1962C197.418 25.1235 197.224 24.1158 196.658 23.547C196.092 22.9783 195.154 22.8482 194.637 22.7507C194.12 22.6531 194.023 22.5881 194.475 22.133C194.928 21.678 195.93 20.8329 196.464 19.7927C196.997 18.7526 197.062 17.5174 196.9 15.5834C196.739 13.6493 196.351 11.0164 197.596 9.21251C198.841 7.40847 201.718 6.43336 204.434 6.27089C207.151 6.10832 209.705 6.7585 210.416 9.45636C211.128 12.1542 209.996 16.8999 209.931 20.9466C209.867 24.9934 210.869 28.3414 213.31 31.2993C215.752 34.2572 219.632 36.8251 220.294 38.9379C220.957 41.0507 218.403 42.7084 219.098 43.2935C219.793 43.8786 223.738 43.3909 224.546 41.3433C225.355 39.2955 223.027 35.6875 221.297 31.9008C219.567 28.114 218.435 24.1484 218.484 20.5241C218.532 16.8999 219.761 13.617 220.246 14.8034C220.731 15.9898 220.472 21.6455 222.321 27.22C224.169 32.7945 228.125 38.2878 229.095 41.7333C230.065 45.1788 228.049 46.5764 224.277 46.609C220.505 46.6414 214.975 45.3088 210.277 44.4084C205.578 43.5079 201.711 43.0399 198.234 44.4589C194.756 45.878 191.67 49.1844 187.864 51.905C184.059 54.6257 179.534 56.7606 170.708 56.593C161.882 56.4253 148.754 53.955 141.947 52.7036C135.141 51.4522 134.656 51.4196 136.741 50.9483C138.827 50.477 143.483 49.5669 147.25 49.2906C151.017 49.0143 153.895 49.3718 155.851 48.2992C157.808 47.2265 158.842 44.7237 160.653 42.6271C162.464 40.5306 165.051 38.8404 166.797 38.1741C168.543 37.5077 169.448 37.8653 169.594 39.8481C169.739 41.8309 169.125 45.4388 167.088 47.9904C165.051 50.542 161.591 52.0373 159.036 52.7685C156.482 53.4999 154.833 53.4673 152.359 52.6872C149.886 51.9071 146.587 50.3794 145.165 48.7867C143.742 47.1939 144.195 45.5362 143.758 45.2112C143.322 44.8861 141.996 45.8938 139.49 47.3077C136.984 48.7217 133.298 50.5419 130.743 51.6633C128.189 52.7847 126.766 53.2073 125.053 53.321C123.339 53.4348 121.334 53.2399 119.911 52.0372C118.489 50.8345 117.648 48.6242 118.65 47.6978C119.653 46.7714 122.498 47.129 124.438 48.0067C126.378 48.8843 127.413 50.282 127.332 50.8996C127.251 51.5172 126.055 51.3546 125.57 50.7534C125.085 50.152 125.311 49.1119 126.669 48.2668C128.027 47.4217 130.517 46.7716 133.104 45.2114C135.691 43.6512 138.375 41.1808 140.347 39.393C142.319 37.6053 143.58 36.5001 145.068 35.9801C146.555 35.46 148.269 35.525 149.029 36.6952C149.789 37.8653 149.595 40.1407 150.468 41.5708C151.341 43.001 153.281 43.5861 155.156 42.7898C157.032 41.9934 158.842 39.8156 159.958 38.1579C161.073 36.5001 161.494 35.3626 162.48 35.33C163.466 35.2974 165.018 36.3701 165.115 36.9065C165.212 37.4428 163.854 37.4428 162.432 36.5977C161.009 35.7526 159.522 34.0623 158.762 32.9084C158.002 31.7545 157.969 31.137 157.986 29.8693C158.002 28.6016 158.066 26.6839 158.228 25.4162C158.39 24.1485 158.648 23.531 158.98 23.6284C159.311 23.7259 159.716 24.5385 159.651 25.2292C159.586 25.9199 159.053 26.4888 158.632 26.2044C158.212 25.92 157.905 24.7823 157.969 24.0916C158.034 23.401 158.471 23.1571 158.737 22.2714C159.004 21.3856 159.101 19.858 158.39 18.7284C157.678 17.5989 156.159 16.8675 154.396 16.5262C152.634 16.1849 150.629 16.2336 148.875 16.8107C147.121 17.3876 145.618 18.4928 144.874 19.3867C144.13 20.2805 144.146 20.9631 145.755 21.1663C147.364 21.3694 150.565 21.0931 152.464 21.207C154.364 21.3207 154.962 21.8245 155.512 22.499C156.062 23.1735 156.563 24.0186 156.927 23.9942C157.29 23.9697 157.517 23.0759 157.266 22.0845C157.016 21.0931 156.288 20.0042 155.092 19.3461C153.895 18.6879 152.23 18.4603 150.581 18.7203C148.932 18.9803 147.299 19.728 146.483 20.7194C145.666 21.7108 145.666 22.9459 145.909 24.1323C146.151 25.3187 146.636 26.4564 146.733 27.2934C146.83 28.1303 146.539 28.6667 146.062 28.2686C145.585 27.8704 144.922 26.5377 145.157 25.8632C145.391 25.1887 146.523 25.1724 147.065 26.0825C147.606 26.9926 147.558 28.8291 147.986 30.3244C148.415 31.8196 149.32 32.9736 150.767 33.331C152.214 33.6886 154.203 33.2499 155.423 32.2341C156.644 31.2183 157.097 29.6255 157.016 28.1466C156.935 26.6676 156.321 25.3025 155.553 24.2623C154.785 23.2222 153.863 22.5071 153.192 22.5883C152.521 22.6696 152.101 23.5472 152.238 24.3598C152.376 25.1723 153.071 25.92 153.572 26.5702C154.073 27.2202 154.38 27.7728 154.162 28.0085C153.944 28.2442 153.2 28.1629 152.788 28.2116C152.376 28.2603 152.295 28.4392 152.287 29.0649C152.279 29.6905 152.343 30.7632 152.44 31.9009C152.537 33.0386 152.667 34.2411 151.519 35.1919C150.371 36.1427 147.946 36.8416 146.038 37.6542C144.13 38.4668 142.74 39.3931 140.444 41.189C138.149 42.9849 134.947 45.6502 132.501 46.9748C130.054 48.2994 128.362 48.2832 126.648 47.763C124.934 47.243 123.199 46.219 121.556 45.9347C119.912 45.6502 118.36 46.1053 116.193 46.4629C114.027 46.8205 111.246 47.0805 108.384 47.1455C105.523 47.2105 102.58 47.0805 100.333 46.8042C98.0858 46.5279 96.5338 46.1054 95.9841 45.0003C95.4343 43.8951 95.8871 42.1074 95.7578 40.6771C95.6284 39.2469 94.9171 38.1743 93.8338 37.6216C92.7506 37.0691 91.2955 37.0366 90.4548 37.8004C89.6141 38.5642 89.3877 40.1245 89.6303 40.6933C89.8728 41.2621 90.5841 40.8396 91.3602 40.5795C92.1363 40.3195 92.977 40.222 93.4296 40.9533C93.8823 41.6847 93.947 43.2449 94.4805 43.3749C95.0141 43.5049 96.0164 42.2047 97.1805 41.5871C98.3445 40.9695 99.6703 41.0345 102.128 41.3271C104.585 41.6197 108.174 42.1397 110.47 41.4571C112.766 40.7745 113.768 38.8892 114.124 36.4027C114.48 33.9161 114.189 30.8282 114.884 29.0242C115.579 27.2201 117.26 26.7001 118.521 27.0251C119.782 27.3501 120.623 28.5203 121.108 30.7144C121.593 32.9084 121.723 36.1264 121.335 38.5642C120.947 41.002 120.041 42.6598 119.104 43.5536C118.166 44.4475 117.196 44.5775 116.921 43.131C116.646 41.6846 117.066 38.6617 117.519 35.9963C117.972 33.3308 118.457 31.0231 118.376 29.2516C118.295 27.4802 117.648 26.2449 116.581 25.2211C115.514 24.1972 114.027 23.3846 112.879 23.7583C111.731 24.1321 110.923 25.6924 109.872 26.6675C108.821 27.6426 107.528 28.0327 106.364 27.7076C105.2 27.3826 104.165 26.3425 103.486 25.2861C102.807 24.2297 102.483 23.157 102.322 21.6131C102.16 20.0691 102.16 18.0538 101.966 16.4611C101.772 14.8684 101.384 13.6982 100.818 13.5357C100.252 13.3731 99.5087 14.2183 99.9776 15.4859C100.446 16.7536 102.128 18.4438 103.599 19.8091C105.07 21.1742 106.331 22.2143 107.544 22.3932C108.756 22.5719 109.921 21.8893 110.907 19.7928C111.893 17.6963 112.701 14.1857 112.572 11.5366C112.443 8.88747 111.376 7.09971 110.131 6.1246C108.886 5.14948 107.463 4.98691 105.863 5.15762C104.262 5.32823 102.483 5.83211 101.505 6.72594C100.527 7.61977 100.349 8.90375 100.309 9.86269C100.269 10.8215 100.366 11.4554 100.624 11.4879C100.883 11.5203 101.303 10.9515 102.168 10.4233C103.033 9.89514 104.343 9.40753 105.992 9.40753C107.641 9.40753 109.629 9.89514 110.688 10.2689C111.747 10.6427 111.877 10.9028 111.456 10.8865C111.036 10.8703 110.066 10.5778 109.54 10.8621C109.015 11.1465 108.934 12.0078 108.991 12.9749C109.047 13.9419 109.241 15.0146 109.395 15.7784C109.549 16.5422 109.662 16.9973 109.435 17.2005C109.209 17.4037 108.643 17.3548 108.239 17.363C107.835 17.3711 107.592 17.4361 107.536 17.7369C107.479 18.0375 107.608 18.5738 107.73 19.232C107.851 19.8902 107.964 20.6703 107.455 21.7023C106.945 22.7343 105.814 24.0183 104.375 24.2052C102.936 24.392 101.19 23.4819 98.7648 24.0833C96.3397 24.6846 93.2355 26.7973 91.5057 28.2763C89.7757 29.7552 89.42 30.6004 88.5955 32.4532C87.7709 34.306 86.4775 37.1664 85.3458 39.1979C84.2141 41.2294 83.244 42.4321 82.4842 42.7409C81.7244 43.0496 81.1747 42.4646 80.916 41.3919C80.6573 40.3192 80.6896 38.759 81.11 37.6864C81.5303 36.6137 82.3387 36.0286 83.3896 35.2811C84.4404 34.5334 85.7338 33.6233 86.2351 32.3557C86.7362 31.088 86.4453 29.4628 86.2997 28.3577C86.1542 27.2526 86.1542 26.6675 86.7686 26.4075C87.383 26.1475 88.6117 26.2125 89.2099 25.9687C89.8081 25.7249 89.7757 25.1723 89.2907 24.1159C88.8057 23.0595 87.868 21.4994 87.674 20.1991C87.48 18.899 88.0296 17.8588 88.6117 16.8186C89.1937 15.7785 89.8081 14.7384 89.517 13.0482C89.2261 11.358 88.0297 9.01759 86.0573 6.93735C84.0848 4.857 81.3364 3.03679 78.3454 2.80931C75.3544 2.58174 72.121 3.947 70.0192 6.22226C67.9175 8.49753 66.9474 11.683 66.6402 15.3235C66.333 18.9641 66.6887 23.0595 67.9982 25.5137C69.3078 27.9678 71.5712 28.7803 73.2042 28.0652C74.8371 27.3501 75.8395 25.1073 77.0197 22.7508C78.1999 20.3942 79.5579 17.9238 80.7221 16.9163C81.8861 15.9086 82.8561 16.3636 83.3735 17.4851C83.8908 18.6065 83.9555 20.3942 83.3735 21.4994C82.7915 22.6045 81.5628 23.0271 80.8675 22.2632C80.1722 21.4994 80.0106 19.549 80.1723 18.3464C80.334 17.1437 80.819 16.6887 81.967 16.1849C83.1148 15.681 84.9256 15.1285 86.219 14.3971C87.5123 13.6658 88.2884 12.7557 87.7872 11.618C87.2861 10.4803 85.5075 9.11515 83.4381 8.05875C81.3688 7.00235 79.0083 6.25471 77.149 6.09225C75.2897 5.92968 73.9317 6.35228 72.4443 7.92874C70.957 9.5052 69.3402 12.2356 68.4672 15.1447C67.5941 18.0538 67.4648 21.1418 67.5618 23.9696C67.6588 26.7975 67.9821 29.3654 69.0816 30.7794C70.181 32.1933 72.0563 32.4533 73.948 33.2497C75.8396 34.046 77.7473 35.3787 78.7336 36.5651C79.7198 37.7516 79.7844 38.7917 79.4611 39.1655C79.1378 39.5392 78.4264 39.2467 76.5024 38.0766C74.5786 36.9065 71.442 34.8587 69.1302 34.0136C66.8182 33.1685 65.3308 33.5261 61.9033 35.8501C58.4758 38.1742 53.1082 42.4648 50.3113 46.219C47.5144 49.9733 47.288 53.1912 47.288 56.4904C47.288 59.7896 47.5143 63.1701 47.8538 65.8517C48.1934 68.5333 48.646 70.5161 50.1011 71.8488C51.5562 73.1815 54.0136 73.864 57.9747 74.9692C61.9356 76.0743 67.4002 77.602 71.7007 78.5771C76.0012 79.5523 79.1378 79.9749 80.5927 79.536C82.0478 79.0972 81.8214 77.7971 81.3849 76.2531C80.9485 74.7091 80.3017 72.9213 79.4286 71.4424C78.5555 69.9634 77.4562 68.7933 77.2299 69.7684C77.0035 70.7435 77.6503 73.8639 78.9436 75.8467C80.237 77.8295 82.1772 78.6746 84.4083 81.8438C86.6394 85.013 89.1615 90.5062 91.3764 94.033C93.5914 97.5598 95.4991 99.12 97.8918 98.2749C100.285 97.4298 103.162 94.1793 105.167 90.8476C107.172 87.5158 108.304 84.103 108.999 81.1287C109.694 78.1546 109.953 75.6193 110.599 73.4252C111.246 71.2311 112.281 69.3783 114.189 68.2569C116.096 67.1355 118.877 66.7455 121.237 66.5017C123.598 66.258 125.538 66.1604 126.039 65.3966C126.54 64.6328 125.603 63.2025 123.21 62.1299C120.817 61.0573 116.969 60.3422 113.703 60.5047C110.438 60.6673 107.754 61.7074 107.091 63.2189C106.428 64.7303 107.786 66.7131 109.128 67.5582C110.47 68.4033 111.796 68.1108 111.699 67.2169C111.602 66.3231 110.082 64.8278 108.643 65.2991C107.204 65.7705 105.846 68.2083 104.407 71.2149C102.968 74.2215 101.449 77.7971 99.8482 78.0246C98.2476 78.2521 96.5662 75.1317 95.5476 70.3048C94.529 65.4779 94.1734 58.9446 92.6213 54.6214C91.0693 50.2983 88.3207 48.1855 85.5077 46.6741C82.6946 45.1626 79.8168 44.2525 76.4055 42.9361C72.9942 41.6197 69.0493 39.8969 66.1553 39.4906C63.2614 39.0843 61.4183 39.9944 63.1159 42.0584C64.8135 44.1225 70.0517 47.3404 72.9619 49.5345C75.872 51.7286 76.454 52.8987 72.4607 51.7123C68.4674 50.5259 59.8987 46.9828 54.6928 47.4704C49.4868 47.9581 47.6438 52.4761 46.4959 55.499C45.348 58.5219 44.8953 60.0497 45.3803 63.5602C45.8654 67.0707 47.2882 72.564 46.9487 74.9694C46.6091 77.3748 44.5075 76.6921 41.0153 70.8901C37.5231 65.088 32.6406 54.1665 29.7951 48.4458C26.9497 42.725 26.1413 42.2049 26.6586 42.2211C27.176 42.2374 29.0191 42.79 31.3957 46.3004C33.7723 49.8109 36.6824 56.2793 39.0069 59.1148C41.3313 61.9504 43.0702 61.1532 43.3289 58.7641C43.5875 56.375 42.3661 52.394 40.6883 48.2583C39.0106 44.1225 36.8764 39.8319 35.5184 37.0853C34.1604 34.3387 33.5783 33.136 32.8346 31.5758C32.0909 30.0157 31.1855 28.0979 28.9221 26.6514C26.6586 25.205 23.0372 24.2299 19.7552 25.5462C16.4732 26.8626 13.5308 30.4706 11.9302 34.6962C10.3296 38.9218 10.0709 43.765 10.4751 47.633C10.8793 51.501 11.9463 54.3939 12.6576 54.1339C13.369 53.8739 13.7247 50.4609 14.048 46.5279C14.3714 42.5949 14.6624 38.1417 15.1474 34.6475C15.6324 31.1532 16.3114 28.6179 17.8312 26.9602C19.3509 25.3025 21.7114 24.5224 22.7138 22.9622C23.7162 21.402 23.3605 19.0616 23.0856 16.9488C22.8107 14.836 22.6167 12.9507 23.11 10.3794C23.6032 7.80798 24.7838 4.55048 27.6701 3.22693C30.5563 1.90338 35.1484 2.51388 37.7544 3.59479C40.3603 4.67571 40.9802 6.22704 40.2765 7.25811C39.5729 8.28908 37.5456 8.79968 36.1116 9.16877C34.6776 9.53785 33.8369 9.76533 33.4651 10.1554C33.0933 10.5454 33.1902 11.098 33.4004 11.6994C33.6106 12.3007 33.934 12.9508 33.74 13.4546C33.546 13.9584 32.8346 14.316 32.3819 14.8848C31.9293 15.4535 31.7352 16.2337 31.0724 16.1687C30.4095 16.1037 29.2778 15.1936 28.2915 14.9986C27.3053 14.8036 26.4646 15.3236 26.3191 16.315C26.1736 17.3064 26.7233 18.7691 27.3538 19.4517C27.9843 20.1343 28.6956 20.0367 28.9705 19.0616C29.2454 18.0865 29.0836 16.2337 28.4047 14.9986C27.7256 13.7634 26.5292 13.1458 26.3191 11.098C26.1089 9.05025 26.8849 5.57229 28.8574 4.41833C30.8298 3.26437 33.9985 4.4346 35.874 5.96233C37.7494 7.48996 38.3314 9.37528 38.7357 10.8217C39.1399 12.2682 39.3662 13.2758 39.6088 14.1372C39.8513 14.9986 40.1099 15.7137 40.5465 16.2987C40.983 16.8838 41.5974 17.3389 41.4034 17.5826C41.2094 17.8264 40.207 17.8589 39.6574 17.9727C39.1076 18.0864 39.0107 18.2814 39.1076 19.2241C39.2046 20.1667 39.4956 21.8569 39.3501 23.4171C39.2046 24.9773 38.6226 26.4075 37.7657 26.8951C36.9088 27.3827 35.7771 26.9275 34.6777 26.31C33.5783 25.6924 32.5113 24.9123 31.897 24.8636C31.2826 24.8148 31.121 25.4974 30.7006 26.7326C30.2802 27.9678 29.6012 29.7555 27.0468 32.0958C24.4923 34.4361 20.0625 37.329 17.8314 40.4007C15.6003 43.4724 15.5679 46.7228 16.2843 50.4209C17.0006 54.119 18.4656 58.265 21.0202 60.0689C23.5747 61.8728 27.2185 61.3351 27.7309 60.351C28.2433 59.3669 25.6242 57.9368 22.5119 57.5896C19.3996 57.2424 15.7942 57.9782 13.6439 58.417C11.4937 58.8558 10.7985 58.9977 8.8504 59.4586C6.90225 59.9196 3.70113 60.6998 0.5 61.4798" stroke="#6A6E86" stroke-miterlimit="2.6131" stroke-linecap="round" stroke-linejoin="round"/>
</svg>
